{"title":"Evil Twins S03E01 PDTV x264-TASTETV","uid":12096635,"size":222442595,"categoryP":"video","categoryS":"tv_shows","magnet":"?xt=urn:btih:613458a40a57476af5d2b3c52cc072c70bd712e3&amp;dn=Evil+Twins+S03E01+PDTV+x264-TASTETV&amp;tr=udp%3A%2F%2Ftracker.openbittorrent.com%3A80&amp;tr=udp%3A%2F%2Fopen.demonii.com%3A1337&amp;tr=udp%3A%2F%2Ftracker.coppersurfer.tk%3A6969&amp;tr=udp%3A%2F%2Fexodus.desync.com%3A6969","seeders":0,"leechers":1,"uploader":"Mulva1989","files":2,"time":1436177664,"description":"Evil Twins S03E01 PDTV x264-TASTETV\n\nTwin brothers, Pat and Pete Bondurant were farm boys raised in Tennessee. Bullied for being obese, they had to fight just to survive. Growing to three hundred pounds, the twins terrorized their hometown and covered their horrific crimes, together.\n\nScreens @ &lt;a href=&quot;\nhttps://yuq.me/users/50/321/GrUxfpAvhl.jpg&quot; rel=&quot;nofollow&quot; target=&quot;_NEW&quot;&gt;\nhttps://yuq.me/users/50/321/GrUxfpAvhl.jpg&lt;/a&gt; &lt;a href=&quot;\nhttps://yuq.me/users/50/321/2w0Tn5qy7F.jpg&quot; rel=&quot;nofollow&quot; target=&quot;_NEW&quot;&gt;\nhttps://yuq.me/users/50/321/2w0Tn5qy7F.jpg&lt;/a&gt;\n\nFormat : MPEG-4\nFormat profile : Base Media\nCodec ID : isom\nFile size : 212 MiB\nDuration : 43mn 57s\nOverall bit rate mode : Variable\nOverall bit rate : 675 Kbps\nEncoded date : UTC 2015-07-05 22:43:17\nTagged date : UTC 2015-07-05 22:43:17\n\nVideo\nID : 1\nFormat : AVC\nFormat/Info : Advanced Video Codec\nFormat profile : &lt;a class=&quot;__cf_email__&quot; href=&quot;/cdn-cgi/l/email-protection&quot; data-cfemail=&quot;e9a1808e81a9a5dac7d8&quot;&gt;[email&amp;#160;protected]&lt;/a&gt;&lt;script data-cfhash='f9e31' type=&quot;text/javascript&quot;&gt;\n/* &lt;![CDATA[ */!function(){try{var t=&quot;currentScript&quot;in document?document.currentScript:function(){for(var t=document.getElementsByTagName(&quot;script&quot;),e=t.length;e--;)if(t[e].getAttribute(&quot;data-cfhash&quot;))return t[e]}();if(t&amp;&amp;t.previousSibling){var e,r,n,i,c=t.previousSibling,a=c.getAttribute(&quot;data-cfemail&quot;);if(a){for(e=&quot;&quot;,r=parseInt(a.substr(0,2),16),n=2;a.length-n;n+=2)i=parseInt(a.substr(n,2),16)^r,e+=String.fromCharCode(i);e=document.createTextNode(e),c.parentNode.replaceChild(e,c)}t.parentNode.removeChild(t);}}catch(u){}}()/* ]]&gt; */&lt;/script&gt;\nFormat settings, CABAC : Yes\nFormat settings, ReFrames : 5 frames\nCodec ID : avc1\nCodec ID/Info : Advanced Video Coding\nDuration : 43mn 57s\nBit rate : 519 Kbps\nMaximum bit rate : 2 231 Kbps\nWidth : 536 pixels\nHeight : 296 pixels\nDisplay aspect ratio : 16:9\nFrame rate mode : Constant\nFrame rate : 25.000 fps\nColor space : YUV\nChroma subsampling : 4:2:0\nBit depth : 8 bits\nScan type : Progressive\nBits/(Pixel*Frame) : 0.131\nStream size : 163 MiB (77%)\nTitle : Video\nWriting library : x264 core 146 r2538 121396c\nEncoding settings : cabac=1 / ref=5 / deblock=1:0:0 / analyse=0x3:0x113 / me=umh / subme=8 / psy=1 / psy_rd=1.00:0.00 / mixed_ref=1 / me_range=16 / chroma_me=1 / trellis=1 / 8x8dct=1 / cqm=0 / deadzone=21,11 / fast_pskip=1 / chroma_qp_offset=-2 / threads=3 / lookahead_threads=1 / sliced_threads=0 / nr=0 / decimate=1 / interlaced=0 / bluray_compat=0 / constrained_intra=0 / bframes=3 / b_pyramid=2 / b_adapt=2 / b_bias=0 / direct=3 / weightb=1 / open_gop=0 / weightp=2 / keyint=250 / keyint_min=25 / scenecut=40 / intra_refresh=0 / rc_lookahead=50 / rc=crf / mbtree=1 / crf=21.0 / qcomp=0.60 / qpmin=0 / qpmax=69 / qpstep=4 / ip_ratio=1.40 / aq=1:1.00\nEncoded date : UTC 2015-07-05 22:43:17\nTagged date : UTC 2015-07-05 22:43:26\n\nAudio\nID : 2\nFormat : AAC\nFormat/Info : Advanced Audio Codec\nFormat profile : LC\nCodec ID : 40\nDuration : 43mn 57s\nBit rate mode : Variable\nBit rate : 152 Kbps\nMaximum bit rate : 218 Kbps\nChannel(s) : 2 channels\nChannel positions : Front: L R\nSampling rate : 48.0 KHz\nCompression mode : Lossy\nStream size : 47.7 MiB (22%)\nTitle : \nEncoded date : UTC 2015-07-05 22:04:10\nTagged date : UTC 2015-07-05 22:43:26","torrent":{"xt":"urn:btih:613458a40a57476af5d2b3c52cc072c70bd712e3","amp;dn":"Evil+Twins+S03E01+PDTV+x264-TASTETV","amp;tr":["udp%3A%2F%2Ftracker.openbittorrent.com%3A80","udp%3A%2F%2Fopen.demonii.com%3A1337","udp%3A%2F%2Ftracker.coppersurfer.tk%3A6969","udp%3A%2F%2Fexodus.desync.com%3A6969"],"infoHash":"613458a40a57476af5d2b3c52cc072c70bd712e3","infoHashBuffer":{"type":"Buffer","data":[97,52,88,164,10,87,71,106,245,210,179,197,44,192,114,199,11,215,18,227]},"announce":[],"urlList":[]}}